<?xml version="1.0" encoding="UTF-8"?><svg id="a" xmlns="http://www.w3.org/2000/svg" width="339" height="60" viewBox="0 0 339 60"><rect x="6.44" y="6.39" width="47.21" height="47.21" rx="8.17" ry="8.17" transform="translate(-12.41 30.04) rotate(-45)" fill="#58595b" stroke="#f26522" stroke-miterlimit="10" stroke-width="1.5"/><g><polygon points="18.81 39.26 37.21 39.26 38.81 34.45 14 34.45 18.81 39.26" fill="#f26522"/><path d="M42.98,21.93c.06-.17,.1-.34,.13-.51H26.53l-13.71,4.57c-.1,.03-.19,.07-.28,.11h29.05l1.39-4.18Z" fill="#f26522"/><polygon points="25.04 45.48 35.13 45.48 36.71 40.74 20.3 40.74 25.04 45.48" fill="#f26522"/><path d="M38.49,17.44l-9.09,3.03h13.75c-.2-2.15-2.38-3.79-4.66-3.03Z" fill="#f26522"/><path d="M41.09,27.6H10.87c-.75,1.32-.64,3.07,.57,4.28l.47,.47h27.61l1.58-4.75Z" fill="#f26522"/><path d="M28.54,48.99c1.87,1.87,5.05,1.12,5.88-1.39l.39-1.16h-8.82l2.55,2.55Z" fill="#f26522"/></g><path d="M141.86,12.08c.93,0,1.7,.04,2.32,.12,.62,.08,1.16,.24,1.62,.49,.46,.25,.91,.6,1.33,1.04,.42,.44,.91,1.03,1.45,1.77l21.57,28.3c.15,.27,.41,.41,.75,.41h.52c.31,0,.46-.19,.46-.58V13.35c0-.85,.42-1.28,1.28-1.28h6.09c.85,0,1.28,.43,1.28,1.28V46.64c0,2.36-.43,3.95-1.28,4.78-.85,.83-2.17,1.25-3.94,1.25h-4.99c-.89,0-1.63-.04-2.23-.12-.6-.08-1.13-.23-1.59-.46-.46-.23-.92-.57-1.36-1.01-.44-.44-.96-1.05-1.54-1.83l-21.63-28.3c-.23-.27-.48-.41-.75-.41h-.52c-.31,0-.46,.19-.46,.58v30.27c0,.85-.43,1.28-1.28,1.28h-6.09c-.89,0-1.33-.42-1.33-1.28V18.11c0-2.36,.42-3.95,1.28-4.78,.85-.83,2.16-1.25,3.94-1.25h5.1Z" fill="#58595b"/><path d="M213.99,12.08c1.47,0,2.71,.3,3.71,.9,1,.6,1.99,1.77,2.96,3.51l19.19,34.85c.19,.39,.24,.71,.15,.96-.1,.25-.38,.38-.84,.38h-7.36c-.66,0-1.1-.25-1.33-.75l-4.12-7.48h-27.25l-4,7.48c-.27,.5-.72,.75-1.33,.75h-7.54c-.5,0-.8-.13-.9-.38-.1-.25-.05-.57,.15-.96l19.02-34.85c.97-1.74,1.91-2.91,2.84-3.51,.93-.6,2.01-.9,3.25-.9h3.42Zm-11.25,25.63h19.95l-9.22-16.99c-.16-.27-.37-.41-.64-.41h-.35c-.27,0-.48,.14-.64,.41l-9.1,16.99Z" fill="#58595b"/><path d="M277.66,12.08c4.45,0,7.63,1.01,9.57,3.02,1.93,2.01,2.9,4.99,2.9,8.93v4.29c0,3.94-.97,6.92-2.9,8.93-1.93,2.01-5.12,3.02-9.57,3.02h-24.01v11.13c0,.85-.43,1.28-1.28,1.28h-6.26c-.89,0-1.33-.42-1.33-1.28V13.82c0-1.16,.58-1.74,1.74-1.74h31.14Zm-24.01,20.53h22.21c1.97,0,3.36-.42,4.18-1.28,.81-.85,1.22-2.15,1.22-3.88v-2.2c0-1.74-.41-3.03-1.22-3.89-.81-.85-2.2-1.28-4.18-1.28h-21.46c-.5,0-.75,.23-.75,.7v11.83Z" fill="#58595b"/><path d="M336.17,12.08c.85,0,1.28,.43,1.28,1.28v5.51c0,.85-.43,1.28-1.28,1.28h-29.05c-1.12,0-1.91,.29-2.38,.87-.46,.58-.7,1.37-.7,2.38v1.97c0,2.17,1,3.25,3.02,3.25h21.74c3.36,0,5.89,.86,7.6,2.58,1.7,1.72,2.55,4.18,2.55,7.39v4.64c0,2.82-.83,5.1-2.49,6.84-1.66,1.74-4.25,2.61-7.77,2.61h-32.12c-.89,0-1.33-.42-1.33-1.28v-5.51c0-.85,.44-1.28,1.33-1.28h30.44c1.12,0,1.91-.29,2.38-.87,.46-.58,.7-1.37,.7-2.38v-2.38c0-2.16-1.01-3.25-3.02-3.25h-21.75c-3.36,0-5.9-.86-7.6-2.58-1.7-1.72-2.55-4.18-2.55-7.39v-4.23c0-2.82,.83-5.1,2.49-6.84,1.66-1.74,4.25-2.61,7.77-2.61h30.73Z" fill="#58595b"/><path d="M106.4,12.08c.85,0,1.28,.43,1.28,1.28v5.51c0,.85-.43,1.28-1.28,1.28h-29.05c-1.12,0-1.91,.29-2.38,.87-.46,.58-.7,1.37-.7,2.38v1.97c0,2.17,1,3.25,3.02,3.25h21.74c3.36,0,5.89,.86,7.6,2.58,1.7,1.72,2.55,4.18,2.55,7.39v4.64c0,2.82-.83,5.1-2.49,6.84-1.66,1.74-4.25,2.61-7.77,2.61h-32.12c-.89,0-1.33-.42-1.33-1.28v-5.51c0-.85,.44-1.28,1.33-1.28h30.44c1.12,0,1.91-.29,2.38-.87,.46-.58,.7-1.37,.7-2.38v-2.38c0-2.16-1.01-3.25-3.02-3.25h-21.75c-3.36,0-5.9-.86-7.6-2.58-1.7-1.72-2.55-4.18-2.55-7.39v-4.23c0-2.82,.83-5.1,2.49-6.84,1.66-1.74,4.25-2.61,7.77-2.61h30.73Z" fill="#58595b"/><rect x="115.71" y="12.03" width="8.95" height="8.12" rx="1.29" ry="1.29" fill="#f26522"/><path d="M116.81,28.71h6.76c.6,0,1.09,.49,1.09,1.09v21.76c0,.6-.49,1.09-1.09,1.09h-6.76c-.6,0-1.09-.49-1.09-1.09V29.8c0-.6,.49-1.09,1.09-1.09Z" fill="#f26522"/></svg>